o Cube.001
v 0.350769 2.221937 0.494727
v 0.000000 2.138505 0.482933
v 0.350769 2.221937 0.494727
v 1.163319 -0.734224 0.493927
v 1.163319 2.001387 0.494727
v 0.000000 -2.168686 0.493927
v 0.350769 2.221937 0.494727
v 1.163319 -0.734224 0.493927
v 1.163319 2.001387 0.494727
v 0.989201 -1.314617 0.493927
v 0.640966 -1.755715 0.493927
v 0.000000 -2.168686 0.493927
v 0.350769 2.221937 0.494727
v 1.051896 -0.734224 0.493927
v 0.877778 -1.314617 0.493927
v 0.529543 -1.755715 0.493927
v 0.214194 -0.273475 0.556081
v 0.000000 -0.239761 0.628222
v 1.163319 0.036886 0.494152
v 1.051896 0.006727 0.494143
v 1.051896 0.167911 0.494191
v 1.163319 0.197943 0.494199
v 1.051896 1.007962 0.494436
v 1.163319 0.899634 0.494405
v 0.000000 -0.239761 0.628222
v 1.051896 0.167911 0.494191
v 0.000000 -0.239761 0.628222
v 1.051896 0.167911 0.494191
v 0.000000 -0.239761 0.628222
v 1.051896 0.167911 0.494191
v 0.000000 0.101744 0.912005
v 1.051896 1.007962 0.494436
v 1.051896 1.007962 0.494436
v 1.163319 0.899634 0.494405
v 1.051896 1.007962 0.494436
v 0.000000 -2.168686 0.493927
v 0.000000 -0.239761 0.628222
v 1.051896 1.007962 0.494436
v 1.163319 0.899634 0.494405
v 1.163319 2.001387 0.494727
v 0.350769 2.221937 0.494727
v 0.000000 2.138505 0.482933
v 1.163319 -0.734224 0.493927
v 1.163319 2.001387 0.494727
v 0.000000 -2.168686 0.493927
v 1.163319 -0.734224 0.493927
v 0.000000 -2.168686 0.493927
v 1.163319 0.899634 0.494405
v 0.000000 -0.239761 0.628222
v 0.000000 -0.239761 0.628222
v 0.000000 -0.239761 0.628222
v 0.000000 0.101744 0.912005
v 0.000000 -2.168686 0.493927
v 0.000000 -0.239761 0.628222
v 1.163319 2.001387 0.494727
v 0.350769 2.221937 0.494727
v 0.350769 2.221937 0.494727
v 1.163319 0.899634 0.494405
v 1.163319 0.899634 0.494405
v 0.350769 2.221937 0.494727
v 1.163319 0.899634 0.494405
v 1.163319 2.001387 0.494727
v 1.268397 -0.809759 0.431961
v 1.268397 -0.809759 0.431961
v 1.268397 -0.809759 0.431961
v 1.323123 -0.855418 0.334781
v 1.323123 -0.855418 0.334781
v 1.323123 -0.855418 0.334781
v 0.350769 2.221937 0.494727
v 1.163319 2.001387 0.494727
v 1.163319 2.001387 0.494727
v 1.163319 0.899634 0.494405
v 0.350769 2.221937 0.494727
v 0.350769 2.221937 0.494727
v 1.163319 2.001387 0.494727
v 1.163319 0.899634 0.494405
v 1.163319 0.899634 0.494405
v 0.350769 2.221937 0.494727
v 1.268397 -0.809759 0.431961
v 1.268397 -0.809759 0.431961
v 1.268397 -0.809759 0.431961
v 1.323123 -0.855418 0.334781
v 1.323123 -0.855418 0.334781
v 1.323123 -0.855418 0.334781
v 0.350769 2.221937 0.494727
v 1.163319 2.001387 0.494727
v 0.350769 2.221937 0.494727
v 0.350769 2.221937 0.494727
v 1.163319 2.001387 0.494727
v 0.350769 2.221937 0.494727
v 1.227323 -0.838158 -0.311649
v 1.227323 -0.838158 -0.311649
v 1.227323 -0.838158 -0.311649
v 1.241949 -0.761899 0.451313
v 1.067831 -1.342292 0.451313
v 0.719595 -1.783390 0.451313
v 1.241949 0.009211 0.451539
v 1.241949 0.170268 0.451586
v 1.241949 0.871959 0.451791
v 1.241949 0.871959 0.451791
v 1.241949 0.871959 0.451791
v 1.241949 1.973712 0.452113
v 0.352261 2.312729 0.481376
v 0.000000 2.229296 0.469582
v 1.164811 2.092179 0.481376
v 0.353236 2.363704 0.465690
v 0.000000 2.280272 0.453897
v 1.165786 2.143155 0.465690
v 1.285598 -0.770111 0.352716
v 1.111480 -1.350503 0.352716
v 0.763244 -1.791602 0.352716
v 1.285598 0.000999 0.352941
v 1.285598 0.162057 0.352988
v 1.285598 0.863747 0.353193
v 1.285598 0.863747 0.353193
v 1.285598 0.863747 0.353193
v 1.285598 1.965500 0.353516
v 1.269417 2.031073 0.410962
v 0.380704 2.421065 0.424539
v 0.000000 2.337633 0.412746
v 1.193254 2.200516 0.424539
v 1.283171 2.083412 0.353918
v 0.394459 2.473404 0.367495
v 0.000000 2.389972 0.355702
v 1.207009 2.252855 0.367495
v 1.285598 -0.770111 -0.171347
v 1.111480 -1.350503 -0.171347
v 0.763244 -1.791602 -0.171347
v 1.285598 0.000999 -0.171121
v 1.285598 0.162057 -0.171074
v 1.285598 0.863747 -0.170869
v 1.285598 0.863747 -0.170869
v 1.285598 0.863747 -0.170869
v 1.285598 1.965500 -0.170547
v 1.283171 2.083412 -0.170144
v 0.394459 2.473404 -0.156567
v 0.000000 2.389972 -0.168361
v 1.207009 2.252855 -0.156567
v 0.000000 -2.168686 0.493927
v 0.763244 -1.791602 -0.171347
v -0.350769 2.221937 0.494727
v -0.350769 2.221937 0.494727
v -1.163319 -0.734224 0.493927
v -1.163319 2.001387 0.494727
v -0.350769 2.221937 0.494727
v -1.163319 -0.734224 0.493927
v -1.163319 2.001387 0.494727
v -0.989201 -1.314617 0.493927
v -0.640966 -1.755715 0.493927
v -0.350769 2.221937 0.494727
v -1.051896 -0.734224 0.493927
v -0.877778 -1.314617 0.493927
v -0.529543 -1.755715 0.493927
v -0.214194 -0.273475 0.556081
v -1.163319 0.036886 0.494152
v -1.051896 0.006727 0.494143
v -1.051896 0.167911 0.494191
v -1.163319 0.197943 0.494199
v -1.051896 1.007962 0.494436
v -1.163319 0.899634 0.494405
v -1.051896 0.167911 0.494191
v -1.051896 0.167911 0.494191
v -1.051896 0.167911 0.494191
v -1.051896 1.007962 0.494436
v -1.051896 1.007962 0.494436
v -1.163319 0.899634 0.494405
v -1.051896 1.007962 0.494436
v -1.051896 1.007962 0.494436
v -1.163319 0.899634 0.494405
v -1.163319 2.001387 0.494727
v -0.350769 2.221937 0.494727
v -1.163319 -0.734224 0.493927
v -1.163319 2.001387 0.494727
v -1.163319 -0.734224 0.493927
v -1.163319 0.899634 0.494405
v -1.163319 2.001387 0.494727
v -0.350769 2.221937 0.494727
v -0.350769 2.221937 0.494727
v -1.163319 0.899634 0.494405
v -1.163319 0.899634 0.494405
v -0.350769 2.221937 0.494727
v -1.163319 0.899634 0.494405
v -1.163319 2.001387 0.494727
v -1.268397 -0.809759 0.431961
v -1.268397 -0.809759 0.431961
v -1.268397 -0.809759 0.431961
v -1.323123 -0.855418 0.334781
v -1.323123 -0.855418 0.334781
v -1.323123 -0.855418 0.334781
v -0.350769 2.221937 0.494727
v -1.163319 2.001387 0.494727
v -1.163319 2.001387 0.494727
v -1.163319 0.899634 0.494405
v -0.350769 2.221937 0.494727
v -0.350769 2.221937 0.494727
v -1.163319 2.001387 0.494727
v -1.163319 0.899634 0.494405
v -1.163319 0.899634 0.494405
v -0.350769 2.221937 0.494727
v -1.268397 -0.809759 0.431961
v -1.268397 -0.809759 0.431961
v -1.268397 -0.809759 0.431961
v -1.323123 -0.855418 0.334781
v -1.323123 -0.855418 0.334781
v -1.323123 -0.855418 0.334781
v -0.350769 2.221937 0.494727
v -1.163319 2.001387 0.494727
v -0.350769 2.221937 0.494727
v -0.350769 2.221937 0.494727
v -1.163319 2.001387 0.494727
v -0.350769 2.221937 0.494727
v -1.227323 -0.838158 -0.311649
v -1.227323 -0.838158 -0.311649
v -1.227323 -0.838158 -0.311649
v -1.241949 -0.761899 0.451313
v -1.067831 -1.342292 0.451313
v -0.719595 -1.783390 0.451313
v -1.241949 0.009211 0.451539
v -1.241949 0.170268 0.451586
v -1.241949 0.871959 0.451791
v -1.241949 0.871959 0.451791
v -1.241949 0.871959 0.451791
v -1.241949 1.973712 0.452113
v -0.352261 2.312729 0.481376
v -1.164811 2.092179 0.481376
v -0.353236 2.363704 0.465690
v -1.165786 2.143155 0.465690
v -1.285598 -0.770111 0.352716
v -1.111480 -1.350503 0.352716
v -0.763244 -1.791602 0.352716
v -1.285598 0.000999 0.352941
v -1.285598 0.162057 0.352988
v -1.285598 0.863747 0.353193
v -1.285598 0.863747 0.353193
v -1.285598 0.863747 0.353193
v -1.285598 1.965500 0.353516
v -1.269417 2.031073 0.410962
v -0.380704 2.421065 0.424539
v -1.193254 2.200516 0.424539
v -1.283171 2.083412 0.353918
v -0.394459 2.473404 0.367495
v -1.207009 2.252855 0.367495
v -1.285598 -0.770111 -0.171347
v -1.111480 -1.350503 -0.171347
v -0.763244 -1.791602 -0.171347
v -1.285598 0.000999 -0.171121
v -1.285598 0.162057 -0.171074
v -1.285598 0.863747 -0.170869
v -1.285598 0.863747 -0.170869
v -1.285598 0.863747 -0.170869
v -1.285598 1.965500 -0.170547
v -1.283171 2.083412 -0.170144
v -0.394459 2.473404 -0.156567
v -1.207009 2.252855 -0.156567
v -0.763244 -1.791602 -0.171347
vn -0.0011 -0.0008 1.0000
vn -0.0000 0.0848 0.9964
vn 0.0291 0.0284 0.9992
vn 0.1706 -0.0220 0.9851
vn 0.0306 -0.0055 0.9995
vn 0.2311 -0.1256 0.9648
vn 0.1848 -0.2262 0.9564
vn 0.0214 -0.0126 0.9997
vn 0.2068 0.0532 0.9769
vn 0.1576 -0.0001 0.9875
vn 0.0290 -0.0249 0.9993
vn 0.0369 -0.0003 0.9993
vn 0.2227 -0.1346 0.9656
vn 0.2457 -0.0003 0.9693
vn 0.0124 -0.0050 0.9999
vn -0.0000 -0.0435 0.9991
vn 0.0418 -0.0001 0.9991
vn 0.0520 -0.0001 0.9986
vn -0.0000 -0.0000 1.0000
vn 0.0899 -0.0293 0.9955
vn -0.0000 -0.1960 0.9806
vn -0.0000 -0.1661 0.9861
vn -0.0052 0.0243 0.9997
vn -0.0000 -0.3265 0.9452
vn 0.5112 -0.6030 0.6125
vn 0.6623 -0.3504 0.6622
vn 0.3862 -0.0001 0.9224
vn 0.7347 -0.0002 0.6783
vn 0.7152 0.0386 0.6978
vn 0.3940 -0.0001 0.9191
vn 0.7322 -0.1100 0.6721
vn 0.3369 0.2114 0.9175
vn -0.0124 0.2318 0.9727
vn -0.0000 0.2101 0.9777
vn 0.3517 0.3454 0.8701
vn -0.0271 0.4692 0.8827
vn -0.0000 0.4262 0.9046
vn 0.6170 -0.0000 0.7870
vn 0.9784 -0.0001 0.2069
vn 0.8723 -0.4471 0.1982
vn 0.9681 -0.1428 0.2060
vn 0.6284 -0.0000 0.7779
vn 0.9819 -0.0096 0.1891
vn 0.6399 -0.7514 0.1607
vn 0.8479 0.1110 0.5184
vn 0.5013 0.4864 0.7156
vn 0.0080 0.6677 0.7444
vn -0.0000 0.6592 0.7520
vn 0.9484 0.2375 0.2102
vn 0.5996 0.7298 0.3284
vn 0.0302 0.9362 0.3502
vn -0.0000 0.9283 0.3718
vn 0.7072 -0.0000 0.7070
vn 0.9894 -0.1452 -0.0000
vn 0.8871 -0.4617 -0.0000
vn 0.7070 -0.0000 0.7072
vn 0.0261 0.9997 -0.0000
vn -0.0000 1.0000 -0.0000
vn 0.9767 0.2148 -0.0000
vn 0.9999 0.0103 -0.0000
vn 0.6575 0.7535 -0.0000
vn 1.0000 -0.0000 -0.0000
vn 0.5124 -0.7745 0.3708
vn 0.0011 -0.0008 1.0000
vn -0.0291 0.0284 0.9992
vn -0.1706 -0.0220 0.9851
vn -0.2311 -0.1256 0.9648
vn -0.0306 -0.0055 0.9995
vn -0.1848 -0.2262 0.9564
vn -0.0214 -0.0126 0.9997
vn -0.2068 0.0532 0.9769
vn -0.1576 -0.0001 0.9875
vn -0.0290 -0.0249 0.9993
vn -0.0369 -0.0003 0.9993
vn -0.2227 -0.1346 0.9656
vn -0.2457 -0.0003 0.9693
vn -0.0124 -0.0050 0.9999
vn -0.0520 -0.0001 0.9986
vn -0.0418 -0.0001 0.9991
vn -0.0899 -0.0293 0.9955
vn 0.0052 0.0243 0.9997
vn -0.6623 -0.3504 0.6622
vn -0.5112 -0.6030 0.6125
vn -0.3862 -0.0001 0.9224
vn -0.7347 -0.0002 0.6783
vn -0.7152 0.0386 0.6978
vn -0.3940 -0.0001 0.9191
vn -0.7322 -0.1100 0.6721
vn 0.0124 0.2318 0.9727
vn -0.3369 0.2114 0.9175
vn 0.0271 0.4692 0.8827
vn -0.3517 0.3454 0.8701
vn -0.6170 -0.0000 0.7870
vn -0.9784 -0.0001 0.2069
vn -0.9681 -0.1428 0.2060
vn -0.8723 -0.4471 0.1982
vn -0.6284 -0.0000 0.7779
vn -0.9819 -0.0096 0.1891
vn -0.6399 -0.7514 0.1607
vn -0.5013 0.4864 0.7156
vn -0.8479 0.1110 0.5184
vn -0.0080 0.6677 0.7444
vn -0.5996 0.7298 0.3284
vn -0.9484 0.2375 0.2102
vn -0.0302 0.9362 0.3502
vn -0.7072 -0.0000 0.7070
vn -0.9894 -0.1452 -0.0000
vn -0.8871 -0.4617 -0.0000
vn -0.7070 -0.0000 0.7072
vn -0.0261 0.9997 -0.0000
vn -0.9767 0.2148 -0.0000
vn -0.9999 0.0103 -0.0000
vn -0.6575 0.7535 -0.0000
vn -1.0000 -0.0000 -0.0000
vn -0.5124 -0.7745 0.3708
s 1
f 38//1 2//2 33//3
f 8//4 14//5 10//6
f 11//7 10//6 15//8
f 40//9 38//1 39//10
f 11//7 15//8 16//11
f 8//4 20//12 14//5
f 10//6 14//5 15//8
f 17//13 15//8 14//5
f 14//5 20//12 17//13
f 19//14 21//15 20//12
f 17//13 21//15 18//16
f 21//15 24//17 23//18
f 18//16 26//19 25//19
f 25//19 28//19 27//19
f 27//19 30//20 29//21
f 30//20 31//22 29//21
f 32//19 33//3 35//19
f 24//17 33//3 34//19
f 17//13 16//11 15//8
f 8//4 19//14 20//12
f 17//13 20//12 21//15
f 19//14 22//14 21//15
f 21//15 22//14 24//17
f 31//22 23//18 33//3
f 2//2 31//22 33//3
f 7//19 3//19 1//23
f 13//19 7//19 1//23
f 30//20 28//19 26//19
f 30//20 26//19 21//15
f 6//19 53//19 45//19
f 8//4 43//19 46//19
f 25//19 50//19 49//19
f 37//19 49//19 54//19
f 12//24 45//19 47//19
f 27//19 51//19 50//19
f 31//22 42//19 52//19
f 29//21 52//19 51//19
f 24//17 59//19 58//19
f 1//23 57//19 56//19
f 24//17 61//19 58//19
f 41//19 56//19 60//19
f 48//19 72//19 76//19
f 67//19 84//19 83//19
f 5//19 71//19 70//19
f 65//19 79//19 81//19
f 61//19 76//19 77//19
f 1//23 74//19 73//19
f 41//19 78//19 74//19
f 67//19 82//19 83//19
f 5//19 75//19 70//19
f 1//23 69//19 73//19
f 63//19 79//19 80//19
f 40//9 55//19 62//19
f 70//19 89//19 86//19
f 85//19 90//19 74//19
f 73//19 88//19 87//19
f 93//19 92//19 91//19
f 23//18 31//22 30//20
f 86//19 70//19 75//19
f 90//19 88//19 74//19
f 73//19 87//19 85//19
f 74//19 73//19 85//19
f 10//6 96//25 95//26
f 34//19 99//27 100//19
f 19//14 98//28 22//14
f 39//10 102//29 40//9
f 8//4 97//28 19//14
f 34//19 101//30 100//19
f 22//14 99//27 24//17
f 10//6 94//31 8//4
f 8//4 94//31 97//28
f 19//14 97//28 98//28
f 22//14 98//28 99//27
f 10//6 95//26 94//31
f 10//6 11//7 96//25
f 39//10 101//30 102//29
f 1//23 105//32 103//33
f 1//23 104//34 2//2
f 103//33 108//35 106//36
f 103//33 107//37 104//34
f 40//9 102//29 105//32
f 105//32 102//29 108//35
f 100//19 116//38 115//19
f 97//28 113//39 98//28
f 94//31 110//40 109//41
f 98//28 114//42 99//27
f 101//30 117//43 102//29
f 95//26 111//44 110//40
f 100//19 114//42 115//19
f 94//31 112//39 97//28
f 95//26 96//25 111//44
f 38//1 40//9 1//23
f 34//19 39//10 38//1
f 38//1 1//23 2//2
f 33//3 34//19 38//1
f 54//19 37//19 25//19
f 54//19 25//19 18//16
f 1//23 103//33 104//34
f 30//20 21//15 23//18
f 1//23 40//9 105//32
f 97//28 112//39 113//39
f 94//31 95//26 110//40
f 98//28 113//39 114//42
f 101//30 116//38 117//43
f 94//31 109//41 112//39
f 103//33 105//32 108//35
f 103//33 106//36 107//37
f 108//35 118//45 121//46
f 108//35 119//47 106//36
f 106//36 120//48 107//37
f 121//46 122//49 125//50
f 119//47 125//50 123//51
f 119//47 124//52 120//48
f 102//29 117//43 118//45
f 118//45 117//43 122//49
f 113//39 131//53 114//42
f 110//40 126//54 109//41
f 115//19 131//53 132//19
f 111//44 127//55 110//40
f 115//19 133//56 132//19
f 124//52 136//57 137//58
f 117//43 135//59 122//49
f 125//50 136//57 123//51
f 116//38 134//60 117//43
f 122//49 138//61 125//50
f 109//41 129//62 112//39
f 112//39 130//62 113//39
f 108//35 102//29 118//45
f 121//46 118//45 122//49
f 113//39 130//62 131//53
f 110//40 127//55 126//54
f 111//44 128//63 127//55
f 17//13 18//16 16//11
f 117//43 134//60 135//59
f 116//38 133//56 134//60
f 109//41 126//54 129//62
f 112//39 129//62 130//62
f 108//35 121//46 119//47
f 106//36 119//47 120//48
f 119//47 121//46 125//50
f 119//47 123//51 124//52
f 124//52 123//51 136//57
f 125//50 138//61 136//57
f 122//49 135//59 138//61
f 18//16 12//24 16//11
f 16//11 12//24 11//7
f 96//25 11//7 12//24
f 111//44 96//25 12//24
f 128//63 111//44 12//24
f 128//63 139//19 140//19
f 168//64 165//65 2//2
f 146//66 148//67 151//68
f 149//69 152//70 148//67
f 170//71 169//72 168//64
f 149//69 153//73 152//70
f 146//66 151//68 156//74
f 148//67 152//70 151//68
f 154//75 151//68 152//70
f 151//68 154//75 156//74
f 155//76 156//74 157//77
f 154//75 18//16 157//77
f 157//77 159//78 160//79
f 18//16 161//19 157//77
f 25//19 162//19 161//19
f 27//19 163//80 162//19
f 163//80 29//21 31//22
f 164//19 165//65 159//78
f 160//79 165//65 159//78
f 154//75 152//70 153//73
f 146//66 156//74 155//76
f 154//75 157//77 156//74
f 155//76 157//77 158//76
f 157//77 160//79 158//76
f 31//22 165//65 159//78
f 2//2 165//65 31//22
f 145//19 141//81 142//19
f 150//19 141//81 145//19
f 163//80 161//19 162//19
f 163//80 157//77 161//19
f 146//66 172//19 143//19
f 160//79 180//19 166//19
f 141//81 178//19 150//19
f 160//79 182//19 175//19
f 171//19 177//19 141//81
f 175//19 193//19 160//79
f 188//19 205//19 189//19
f 144//19 192//19 147//19
f 186//19 200//19 185//19
f 182//19 197//19 175//19
f 141//81 195//19 171//19
f 171//19 199//19 181//19
f 188//19 203//19 187//19
f 144//19 196//19 173//19
f 141//81 190//19 145//19
f 184//19 200//19 185//19
f 170//71 183//19 176//19
f 191//19 210//19 196//19
f 206//19 195//19 211//19
f 194//19 206//19 190//19
f 194//19 209//19 195//19
f 195//19 211//19 199//19
f 214//19 212//19 213//19
f 159//78 163//80 31//22
f 207//19 196//19 191//19
f 211//19 195//19 209//19
f 194//19 206//19 208//19
f 195//19 206//19 194//19
f 148//67 216//82 217//83
f 166//19 220//84 160//79
f 155//76 158//76 219//85
f 169//72 170//71 223//86
f 146//66 155//76 218//85
f 166//19 222//87 169//72
f 158//76 160//79 220//84
f 148//67 146//66 215//88
f 146//66 218//85 215//88
f 155//76 219//85 218//85
f 158//76 220//84 219//85
f 148//67 215//88 216//82
f 148//67 217//83 149//69
f 169//72 223//86 222//87
f 141//81 224//89 225//90
f 141//81 2//2 104//34
f 224//89 226//91 227//92
f 224//89 104//34 107//37
f 170//71 225//90 223//86
f 225//90 227//92 223//86
f 221//19 235//93 222//87
f 218//85 219//85 232//94
f 215//88 228//95 229//96
f 219//85 220//84 233//97
f 222//87 223//86 236//98
f 216//82 229//96 230//99
f 221//19 233//97 220//84
f 215//88 218//85 231//94
f 216//82 230//99 217//83
f 168//64 141//81 170//71
f 166//19 168//64 169//72
f 168//64 2//2 141//81
f 165//65 168//64 166//19
f 141//81 104//34 224//89
f 163//80 159//78 157//77
f 141//81 225//90 170//71
f 218//85 232//94 231//94
f 215//88 229//96 216//82
f 219//85 233//97 232//94
f 222//87 236//98 235//93
f 215//88 231//94 228//95
f 224//89 227//92 225//90
f 224//89 107//37 226//91
f 227//92 239//100 237//101
f 227//92 226//91 238//102
f 226//91 107//37 120//48
f 239//100 242//103 240//104
f 238//102 241//105 242//103
f 238//102 120//48 124//52
f 223//86 237//101 236//98
f 237//101 240//104 236//98
f 232//94 233//97 248//106
f 229//96 228//95 243//107
f 234//19 248//106 233//97
f 230//99 229//96 244//108
f 234//19 250//109 235//93
f 124//52 137//58 253//110
f 236//98 240//104 252//111
f 242//103 241//105 253//110
f 235//93 236//98 251//112
f 240//104 242//103 254//113
f 228//95 231//94 246//114
f 231//94 232//94 247//114
f 227//92 237//101 223//86
f 239//100 240//104 237//101
f 232//94 248//106 247//114
f 229//96 243//107 244//108
f 230//99 244//108 245//115
f 154//75 153//73 18//16
f 236//98 252//111 251//112
f 235//93 251//112 250//109
f 228//95 246//114 243//107
f 231//94 247//114 246//114
f 227//92 238//102 239//100
f 226//91 120//48 238//102
f 238//102 242//103 239//100
f 238//102 124//52 241//105
f 124//52 253//110 241//105
f 242//103 253//110 254//113
f 240//104 254//113 252//111
f 18//16 153//73 12//24
f 153//73 149//69 12//24
f 217//83 12//24 149//69
f 230//99 12//24 217//83
f 245//115 12//24 230//99
f 245//115 139//19 12//24
f 18//16 21//15 26//19
f 25//19 26//19 28//19
f 27//19 28//19 30//20
f 32//19 23//18 33//3
f 24//17 23//18 33//3
f 6//19 36//19 53//19
f 8//4 4//19 43//19
f 25//19 27//19 50//19
f 37//19 25//19 49//19
f 12//24 6//19 45//19
f 27//19 29//21 51//19
f 31//22 2//2 42//19
f 29//21 31//22 52//19
f 24//17 34//19 59//19
f 1//23 13//19 57//19
f 24//17 48//19 61//19
f 41//19 1//23 56//19
f 48//19 24//17 72//19
f 67//19 68//19 84//19
f 5//19 9//19 71//19
f 65//19 64//19 79//19
f 61//19 48//19 76//19
f 1//23 41//19 74//19
f 41//19 60//19 78//19
f 67//19 66//19 82//19
f 5//19 44//19 75//19
f 1//23 7//19 69//19
f 63//19 64//19 79//19
f 70//19 75//19 89//19
f 73//19 69//19 85//19
f 73//19 74//19 88//19
f 74//19 78//19 90//19
f 34//19 24//17 99//27
f 34//19 39//10 101//30
f 100//19 101//30 116//38
f 100//19 99//27 114//42
f 115//19 114//42 131//53
f 115//19 116//38 133//56
f 128//63 12//24 139//19
f 18//16 25//19 161//19
f 25//19 27//19 162//19
f 27//19 29//21 163//80
f 164//19 167//19 165//65
f 160//79 166//19 165//65
f 146//66 174//19 172//19
f 160//79 179//19 180//19
f 141//81 177//19 178//19
f 160//79 179//19 182//19
f 171//19 181//19 177//19
f 175//19 197//19 193//19
f 188//19 204//19 205//19
f 144//19 191//19 192//19
f 186//19 202//19 200//19
f 182//19 198//19 197//19
f 141//81 194//19 195//19
f 171//19 195//19 199//19
f 188//19 204//19 203//19
f 144//19 191//19 196//19
f 141//81 194//19 190//19
f 184//19 201//19 200//19
f 191//19 207//19 210//19
f 194//19 208//19 209//19
f 166//19 221//19 220//84
f 166//19 221//19 222//87
f 221//19 234//19 235//93
f 221//19 234//19 233//97
f 234//19 249//19 248//106
f 234//19 249//19 250//109
f 245//115 255//19 139//19
f 12//24 245//115 128//63
