o Cylinder
v 0.678308 1.000000 -0.000000
v 1.000000 0.692160 0.000000
v 0.563992 1.000000 0.376848
v 0.831470 0.692160 0.555570
v 0.259577 1.000000 0.626674
v 0.382683 0.692160 0.923880
v -0.132331 1.000000 0.665274
v -0.195090 0.692160 0.980785
v -0.493987 1.000000 0.471965
v -0.707107 0.692160 0.707107
v -0.625080 1.000000 0.275771
v -0.923880 0.692160 0.382683
v -0.665274 1.000000 -0.132331
v -0.980785 0.692160 -0.195090
v -0.479636 1.000000 -0.479636
v -0.707107 0.692160 -0.707107
v -0.132331 1.000000 -0.665274
v -0.195090 0.692160 -0.980785
v 0.382683 0.692160 -0.923880
v 0.259577 1.000000 -0.626674
v 0.563992 1.000000 -0.376848
v 0.831470 0.692160 -0.555570
v 0.813288 0.270904 0.000000
v 1.000000 0.449576 -0.000000
v -0.750455 0.270904 0.320631
v -0.923880 0.449576 0.382683
v -0.980785 0.449576 -0.195090
v -0.797661 0.270904 -0.158665
v -0.575082 0.270904 -0.575082
v -0.707107 0.449576 -0.707107
v 0.311232 0.270904 -0.751380
v 0.382683 0.449576 -0.923880
v -0.158665 0.270904 0.797661
v -0.195090 0.449576 0.980785
v 0.676224 0.270904 0.451839
v 0.831470 0.449576 0.555570
v 0.831470 0.449576 -0.555570
v 0.676224 0.270904 -0.451839
v -0.583411 0.270904 0.570630
v -0.707107 0.449576 0.707107
v -0.158665 0.270904 -0.797661
v -0.195090 0.449576 -0.980785
v 0.311232 0.270904 0.751380
v 0.382683 0.449576 0.923880
vn 0.1643 0.9031 -0.3967
vn -0.3036 0.9031 -0.3036
vn -0.0838 0.9031 0.4211
vn -0.8749 0.3696 0.3130
vn -0.6240 -0.3696 0.6885
vn -0.6240 0.3696 0.6885
vn -0.9117 0.3688 -0.1813
vn -0.8749 -0.3696 0.3130
vn 0.1643 0.9031 0.3967
vn 0.7729 0.3688 0.5164
vn 0.3570 0.9031 0.2385
vn -0.1813 0.3688 0.9117
vn 0.3557 0.3688 0.8588
vn 0.3570 0.9031 -0.2385
vn 0.3557 0.3688 -0.8588
vn 0.9295 0.3688 -0.0000
vn 0.4294 0.9031 -0.0000
vn -0.0838 0.9031 -0.4211
vn -0.6573 0.3688 -0.6573
vn -0.4211 0.9031 -0.0838
vn -0.3990 0.9058 0.1428
vn -0.2846 0.9058 0.3140
vn 0.7729 0.3688 -0.5164
vn -0.1813 0.3688 -0.9117
vn 0.3557 -0.3688 -0.8588
vn -0.9117 -0.3688 -0.1813
vn 0.7729 -0.3688 0.5164
vn 0.7729 -0.3688 -0.5164
vn -0.1813 -0.3688 -0.9117
vn -0.6573 -0.3688 -0.6573
vn 0.3557 -0.3688 0.8588
vn -0.1813 -0.3688 0.9117
vn 0.1643 -0.9031 -0.3967
vn 0.4294 -0.9031 -0.0000
vn -0.0838 -0.9031 0.4211
vn -0.4211 -0.9031 -0.0838
vn -0.3036 -0.9031 -0.3036
vn -0.0838 -0.9031 -0.4211
vn 0.3570 -0.9031 0.2385
vn 0.9295 -0.3688 -0.0000
vn 0.3570 -0.9031 -0.2385
vn -0.2846 -0.9058 0.3140
vn 0.1643 -0.9031 0.3967
vn -0.3990 -0.9058 0.1428
s 1
f 20//1 15//2 7//3
f 12//4 40//5 10//6
f 14//7 26//8 12//4
f 5//9 4//10 3//11
f 5//9 8//12 6//13
f 7//3 10//6 8//12
f 21//14 19//15 20//1
f 3//11 2//16 1//17
f 17//18 16//19 15//2
f 13//20 12//4 11//21
f 11//21 10//6 9//22
f 22//23 1//17 2//16
f 15//2 14//7 13//20
f 20//1 18//24 17//18
f 12//4 26//8 40//5
f 22//23 32//25 19//15
f 16//19 27//26 14//7
f 6//13 36//27 4//10
f 13//20 14//7 12//4
f 2//16 37//28 22//23
f 19//15 42//29 18//24
f 21//14 22//23 19//15
f 17//18 18//24 16//19
f 15//2 16//19 14//7
f 20//1 19//15 18//24
f 18//24 30//30 16//19
f 8//12 44//31 6//13
f 5//9 3//11 1//17
f 1//17 21//14 20//1
f 20//1 17//18 15//2
f 15//2 13//20 7//3
f 13//20 11//21 7//3
f 11//21 9//22 7//3
f 7//3 5//9 1//17
f 1//17 20//1 7//3
f 10//6 34//32 8//12
f 5//9 6//13 4//10
f 5//9 7//3 8//12
f 7//3 9//22 10//6
f 3//11 4//10 2//16
f 22//23 21//14 1//17
f 31//33 23//34 33//35
f 11//21 12//4 10//6
f 28//36 26//8 27//26
f 29//37 42//29 41//38
f 35//39 24//40 36//27
f 31//33 37//28 38//41
f 33//35 40//5 39//42
f 43//43 34//32 33//35
f 31//33 42//29 32//25
f 28//36 30//30 29//37
f 35//39 44//31 43//43
f 38//41 24//40 23//34
f 39//42 26//8 25//44
f 4//10 24//40 2//16
f 14//7 27//26 26//8
f 16//19 30//30 27//26
f 8//12 34//32 44//31
f 10//6 40//5 34//32
f 28//36 25//44 26//8
f 33//35 34//32 40//5
f 43//43 44//31 34//32
f 28//36 27//26 30//30
f 39//42 40//5 26//8
f 22//23 37//28 32//25
f 6//13 44//31 36//27
f 2//16 24//40 37//28
f 35//39 23//34 24//40
f 31//33 32//25 37//28
f 35//39 36//27 44//31
f 38//41 37//28 24//40
f 4//10 36//27 24//40
f 19//15 32//25 42//29
f 18//24 42//29 30//30
f 29//37 30//30 42//29
f 31//33 41//38 42//29
f 35//39 43//43 33//35
f 33//35 39//42 25//44
f 25//44 28//36 33//35
f 28//36 29//37 33//35
f 29//37 41//38 31//33
f 31//33 38//41 23//34
f 23//34 35//39 33//35
f 29//37 31//33 33//35
